<svg xmlns="http://www.w3.org/2000/svg" viewBox="0 -0.5 16 16" shape-rendering="crispEdges">
<metadata>Made with Pixels to Svg https://codepen.io/shshaw/pen/XbxvNj</metadata>
<path stroke="#d65a00" d="M6 1h1M5 2h1M4 3h1M4 4h1M4 5h1M4 6h1M4 7h1M4 8h1M4 9h1M3 10h1" />
<path stroke="#ff6b00" d="M7 1h1M6 2h4M5 3h1M7 3h3M8 4h1M6 5h1M8 5h1M10 5h1M5 6h6M5 7h3M9 7h2M5 8h6M5 9h6M4 10h2" />
<path stroke="#ff8732" d="M8 1h2M10 2h1M11 3h1M11 6h1M11 7h1M11 8h1M11 9h1M6 10h7" />
<path stroke="#ffffff" d="M6 3h1M10 3h1M5 4h3M9 4h3M5 5h1M7 5h1M9 5h1M11 5h1M8 7h1" />
<path stroke="#df1b3b" d="M0 5h1M2 5h1M13 5h1M15 5h1M1 6h2M14 6h2" />
<path stroke="#bb1630" d="M0 6h1M13 6h1M1 7h1M14 7h1" />
<path stroke="#808080" d="M0 9h1M15 9h1M1 10h1M14 10h1M1 11h1M4 11h1M6 11h1M9 11h1M11 11h1M14 11h1M2 12h2M6 12h1M9 12h1M12 12h2M6 13h1M9 13h1M6 14h1M9 14h1M6 15h1" />
</svg>